<svg xmlns="http://www.w3.org/2000/svg" xmlns:xlink="http://www.w3.org/1999/xlink" viewBox="0 0 750 500"><defs><style>.cls-1{isolation:isolate;}.cls-2{fill:#940004;}.cls-3,.cls-4,.cls-6,.cls-7{opacity:0.6;}.cls-3{fill:url(#linear-gradient);}.cls-4{fill:url(#linear-gradient-2);}.cls-5{fill:#e6f4ff;mix-blend-mode:overlay;}.cls-6{fill:url(#linear-gradient-3);}.cls-7{fill:url(#linear-gradient-4);}</style><linearGradient id="linear-gradient" y1="418.54" x2="750" y2="418.54" gradientUnits="userSpaceOnUse"><stop offset="0" stop-color="#730005"/><stop offset="0.24" stop-color="#8d2809"/><stop offset="0.79" stop-color="#d08d11"/><stop offset="1" stop-color="#eab515"/></linearGradient><linearGradient id="linear-gradient-2" y1="418.54" y2="418.54" xlink:href="#linear-gradient"/><linearGradient id="linear-gradient-3" y1="173.09" x2="233.49" y2="173.09" xlink:href="#linear-gradient"/><linearGradient id="linear-gradient-4" x1="34.55" y1="91.47" x2="228.04" y2="-52.52" xlink:href="#linear-gradient"/></defs><g class="cls-1"><g id="Layer_2" data-name="Layer 2"><g id="BACKGROUND"><rect class="cls-2" width="750" height="500"/><path class="cls-3" d="M750,500H0V337.86s108.84-13.09,306.15,68.59c211.28,87.47,443.85,7,443.85,7Z"/><path class="cls-4" d="M750,500H0V429s206.69-68.92,352.91-28C539.91,453.34,750,337.09,750,337.09Z"/><path class="cls-5" d="M190.91,464C94.2,453.34,0,463,0,463v37H412.92S321.44,478.39,190.91,464Z"/><path class="cls-6" d="M160.68,216.33C82.41,261.54,0,204,0,204v84.73S173.43,244.33,233.29,57.5C236.48,129.21,201.26,192.9,160.68,216.33Z"/><path class="cls-7" d="M0,0H314.94s-122,15.64-180,98.88C61.49,204.27,0,173.59,0,173.59Z"/></g></g></g></svg>