<svg xmlns="http://www.w3.org/2000/svg" xmlns:xlink="http://www.w3.org/1999/xlink" viewBox="0 0 573.01 539.87"><defs><style>.cls-1{fill:url(#linear-gradient);}.cls-2{opacity:0.9;fill:url(#linear-gradient-2);}.cls-3,.cls-4{opacity:0.8;}.cls-3{fill:url(#linear-gradient-3);}.cls-4{fill:url(#linear-gradient-4);}</style><linearGradient id="linear-gradient" x1="352.15" y1="341.02" x2="573.01" y2="341.02" gradientUnits="userSpaceOnUse"><stop offset="0" stop-color="#77ba40"/><stop offset="1" stop-color="#c9dd6f"/></linearGradient><linearGradient id="linear-gradient-2" y1="298.25" x2="260.39" y2="298.25" gradientUnits="userSpaceOnUse"><stop offset="0" stop-color="#f2a521"/><stop offset="0.16" stop-color="#f3992b"/><stop offset="0.46" stop-color="#f77b47"/><stop offset="0.84" stop-color="#fc4974"/><stop offset="1" stop-color="#f38"/></linearGradient><linearGradient id="linear-gradient-3" x1="719.16" y1="189.43" x2="906.93" y2="189.43" gradientTransform="matrix(-1, 0, 0, 1, 1028.96, 0)" gradientUnits="userSpaceOnUse"><stop offset="0" stop-color="#f2a921"/><stop offset="1" stop-color="#f2ce21"/></linearGradient><linearGradient id="linear-gradient-4" x1="475.16" y1="81.24" x2="275.88" y2="465.45" xlink:href="#linear-gradient-2"/></defs><g id="Layer_2" data-name="Layer 2"><g id="OBJECTS"><path class="cls-1" d="M536.38,345.89c-1.47-1.16-.84-4.44-8.61-10-1.17-.83-13.91-9-13.61-10.41.81-3.94,2.76-8.06,4.1-12,1.71-5,2.49-10.59,3.26-15.88.48-3.3.13-8.59,3.27-10.17s8.11-1.1,11.57-1.93c6.85-1.65,14.86-3.75,20.51-8.13,1.79-1.39,3.87-4.06,5.89-4.92,1.65-.71,3.16-.12,4.7-1.12,8.9-5.71,5.77-15.21-.19-21.67-2.83-3.06-5.14-2.93-7.67.46-1.39,1.85-1.89,3.59-3.71,5.17a42.89,42.89,0,0,1-7,4.6c-3.94,2.21-8,3.89-12.51,3.95-6.33.07-9.37-.1-8.89-7.5,2.49-.84,1.89-15,2.19-18,.66-6.56,2.11-14.15-.65-20.47-1.54-3.52-4.88-7.23-7.65-10-2-2-2.36-3.51-1.92-6.77,3-.39,5.06,1.16,7.4-1.13,2-1.92,1.82-4.49,2.29-6.95.38-2-.19-4.92,1-6.58.75-1,3.54-1.07,3.41-2.78-.18-2.37-4.91-4.75-5.55-7.72s2.58-4.86,2.19-8c-.33-2.7-3.16-5.26-4.17-7.77-1.44-3.56,1.81-6.05,1-10.17-.84-4.31-2.92-4.93-6.8-4.17-1.59.32-3.9,1.1-5.57.58s-2.13-2-3.59-2.52-3.57.28-5.06-.2c-1.67-.54-2.12-1.68-4.11-1.46-1.43.15-4.58,1.95-9.58,1.53-2.31-.19-7.26,4.82-9.85,10.27-2.22,4.67-1.64,13.83-.55,18.57,1.38,6,9.05,20.7.55,18.23-14.3-4.17-22.5,13.05-24.16,17.21-1.28,3.2-.1,12.26-2.64,14-4.76,3.3-13.66,10.57-19,15.13-7.27,6.19-16.94,11.66-17.5,18.57-.4,5.07,2.86,12.56,4.66,17.09,2.25,5.69,5.14,13.55,7,19.32,1,3.06,0,2.93,2.65,4.95,2.13,1.62,6.58,2.45,8,4.73.48.77,0,2.46.34,3.42a29.6,29.6,0,0,0,2.82,4.52c1.62,2.47,2.26,6,4.78,7.65.74,2.38-.79,5.38-1.65,7.93-1.87,5.54-3.2,11.51-1.06,17,4.66,12-9.82,34.31-13.67,36,.41,4.55,7.73,6,7.24,10.67-.82,7.82-5.21,14.58-8.8,21.28-2,3.7-3.7,7.46-7.88,8.87-12,4-26.34,17.32-31.68,29.34-4.85,10.94-13.58,32.3-28.86,40.08-5.55,2.82-9.15,4.26-10.69,8.89-2.91,8.74,19.53,37.9,24.16,40.77,3.05,1.89,5.54,1.56,9.18,1.57,12.47,0,3.63-7.66,1.51-13.19-2.51-6.55-1.36-16-.18-22.54,2.27-12.69,10.26-21.1,18.53-30.49,5-5.64,11.41-11,16.36-16.67,4.16-4.72,9.27-9.39,22.77-20,3.07-2.41,8.4-5,11.35-7.64s3.83-6.95,5.5-10.35a107.5,107.5,0,0,1,7.89-13.24c3.31-4.85,7.54-9.27,11.16-13.93a75.16,75.16,0,0,1,9.07-9.3c1.12-1,2.29-2.76,3.89-2.83.72,0,1.37.86,2.14.87,1,0,2-.78,2.79-1.25,4-2.32,4.87-4.25,10.08-3.42s8.31,5.26,12.49,8.05c2.31,1.54,10.32,7.88,8.61,8.61-25.82,11.11-34.71,37.77-44.43,44.71-9.46,6.76-14,8.81-13.95,14.95.05,4,4.42,8.67,7,11.29,2.12,2.12,13.92,16.38,19.83,19.44,7.9,4.09,9-2.46,7.08-7.5-1.06-2.77-8.15-21.54-6.93-24.36,2.59-6,21.17-22.82,26.25-26.47,29.64-21.31,46.86-31.63,42.32-44C564.63,374.35,552.2,358.39,536.38,345.89Zm-82-49.62c-.6-3.4-2.7-6.32-4.47-9.3a54,54,0,0,1-7.4-24.08c0,.52,5.28-2.16,5.48-2.15,1.69.09,3.65-6.47,3.93-4.68.74,4.67-1.55,16.39-.4,21.08C453.1,283.44,455,289.82,454.42,296.27Z"/><path class="cls-2" d="M62.2,428.6a27.86,27.86,0,1,1-27.86-27.86A27.86,27.86,0,0,1,62.2,428.6ZM46.76,144.83c-.65,2.92-3.24,8.1-2.27,10s3.31-.23,4.28,3.65,6.08,6.72-.07,9.31-7.45,14.25-6.16,17.82S49,201.2,49.67,204.44s8.1,7.12,7.13,7.45a105.62,105.62,0,0,0-13.28,7.45C40,221.93,30.23,221,26.35,221.6s-7.78-1-12.31-1S-1.19,226.46.11,237.48s11,4.21,15.22,2.59,9.72-6.8,23-3.89S73,234.24,73,234.24a30.67,30.67,0,0,1,6.47,8.1c2.92,5.18,2,18.14.33,24s1.94,9.07,4.53,13,7.45,9.39,4.21,19-27.21,31.88-34.33,39.33-7.13,13.28,1.62,26.56S92.43,415.65,96,419.53s3.56,15.55,0,25.27S81.09,460,81.09,464.24s4.21,5.18,6.16,5.83,4.21-1,6.15-1.62c.44-.15,0,1,1.9.37s.79-1.45,1.35-1.66c1.59-.61,3.11-1,3.56-.33.23.36,3.46-.69,3.26-1.34-.29-.93.08-1,1.5-1.69,1.66-.77,7.55-4.42,8.52-6s6.55-5.39,7.18-5c1.32.87,4.63-4.37,5.13-5.39.37-.75,3.56-3.24,4.53-6.15s-.32-8.75-4.86-13.61S110.9,410.79,105,387.46,87.9,352.15,87.9,352.15c3.24-7.12,29.48-11.66,29.48-11.66a76.66,76.66,0,0,1,14.9,17.17c6.48,10.37,10.69,4.86,13.6,12s6.8,11,17.49,16.52,70,47.94,69.65,51.5-2.91,4.54,2.27,10.37,6.48,19.11,3.56,24.94,0,7.78,5.83,8.1S256,471,258,465.53s.8-13.78,2.09-27-1.29-16.36-6.8-16.2c-4.32.13-5.34,2.39-14.08-6.68s-33.69-34.34-42.54-43.74-19.34-15.55-22.25-16.84-2.59-5.83-1.3-7.13-.32-4.21-4.21-7.77-9.39-20.09-11-23-3.24-4.54,1.94-19.44-8.74-27.86-9.39-28.83-1.62-3.56,1-8.1-2.59-3.56-4.21-7.77,0-7.78-4.54-15.23-7.45-29.48-7.45-29.48,7.13-2.91,11,.33,19.11,9.07,19.11,9.07c-1.3,14.57,13,48.59,9.72,51.83s-2.27,10,0,16.2,17.81,7.45,19.76,5.83,2.91-4.86,0-11.34-7.13-13.93-7.13-13.93c3.24-16.85-7.13-61.87-9.07-65.44s-22-8.42-21.7-11.34-2.27-3.88-8.43-4.85-11.66-6.81-14.25-11-6.8-2.59-11.66-3.56-3.89-3.57-11.34-6.48-16.84-3.56-19.42-6.16-4.55-1.62-5.85-4.53,8.43-5.51,5.19-24.3-26.89-13.28-35.64-9.07-9.07,18.14-9.07,18.14S47.4,141.91,46.76,144.83Z"/><path class="cls-3" d="M124.2,331c-.54-6.3-2.84-12.53-2-18.8s5.75-12.87,11.69-10.69c2,.73,4.63.81,6.64,1.5,4.39,1.53,9.15.54,11.56-2.31,25.21-29.84,48.33-34.73,49.34-36.37a13.88,13.88,0,0,0,1.7-5.8c.75-6.78-.56-13.59-1-20.39a86.48,86.48,0,0,1,1.72-24.44c.24-1.1.43-2.45-.42-3.19a5,5,0,0,0-1.73-.7c-1.91-.65-4.33,1.44-4.8-.52s.87-8,1-10c.36-5.92-1-11.56-.62-17.48q.45-6.8.91-13.61a8,8,0,0,0-.56-4.46c-.38-.68-1-1.24-1.31-1.94-.67-1.33-.43-2.92-.4-4.41.1-5.12-2.44-9.9-5.29-14.15s-6.14-8.31-7.86-13.12c-1.22-3.44-1.59-7.12-2.32-10.69a80.2,80.2,0,0,0-4.09-14,18.37,18.37,0,0,1,1.22-15.76,14.65,14.65,0,0,0,1.53-2.9c1-3.11-1.18-6.37-3.75-8.38s-5.67-3.34-7.88-5.74c-4.06-4.4-4.27-13.19-1-18.22s7.88-8.52,15.28-9.46c4.11-.53,9.26.52,12.45,3.15,1.74,1.43,2.86,4,4.37,5.35.72.62,1.93.66,2.3,1.53.49,1.13-.58,2.39-.37,3.6.28,1.57,2.5,2.15,2.88,3.7.22.87-.23,1.77-.28,2.67-.12,2.14,2,3.82,2.27,6,.26,1.87-.89,3.61-1.44,5.42s-.89,2.15,1,2.36c2.19-8.37,3.55-9.11,1.89-14.34a87.73,87.73,0,0,1-4.19-23.6,21.41,21.41,0,1,1,13.47,1.67c.8,6,3.72,16.38,5.43,21.45,1.85,5.44,1.45,10.21-.52,15.61-1.8,4.92,0,10,1.73,15,.49,1.34-1.17,8-.37,9.14,4.79,7.07,2,8.26,7.69,14.6,3.31,3.68,7.8,6,12.19,8.31,10.57,5.48,21,12,32.5,15.07,2.53.69,3.92.46,6,2a68.3,68.3,0,0,1,5.67,4.27c6.18,6.12,18.45,9.6,20.65,14.49,1.07,2.36,2.47,4.37,2.73,6.95.14,1.39.11,3.1-1.1,3.81-1.78,1-3.62-1.15-4.7-2.89a26.41,26.41,0,0,0-12.35-10.38C294.26,164,299.32,168,296,170c0,0-9.4-5-12.74-9.05-2.55-3.12-2.77-5.65-6.32-7.56a31.48,31.48,0,0,0-9.08-3,156.7,156.7,0,0,0-24.7-.51c.66,4.12,4.17,7,7.41,9.6,3.6,2.93,4.59,7.89,6,12.3,6.08,18.37,23.68,32.54,24.88,51.85a9.77,9.77,0,0,1-.41,4c-1.4,3.68-6.07,4.85-10,4.66s-8-1.18-11.7.27a5.35,5.35,0,0,0-3,2.48,6.24,6.24,0,0,0-.47,2.61c-.1,6.32,2.58,12.7,1,18.83-1.21,4.81-4.83,8.62-6.87,13.15-2.28,5.07-2.47,10.78-2.85,16.32A207.16,207.16,0,0,1,242,320.49c-1,4.11-2.12,8.31-1.6,12.51s2.69,8.08,4.81,11.79c5,8.71,10.53,18,19.71,22,2.14.94,4.46,1.58,6.29,3s3,4.07,2,6.16-4,2.68-6.47,2.78a86.21,86.21,0,0,1-58.57-20c-1.85-1.56-3.8-4-2.66-6.13A6.34,6.34,0,0,1,208,350.5c7.31-4.58,11.11-13.3,12.25-21.86s0-17.22-.16-25.85a111.67,111.67,0,0,1,3.2-31.45c-7.93,9.73-15.5,17.57-25.55,25.09-11,8.25-24.23,13.51-34.36,22.84a13.38,13.38,0,0,0-3.71,4.85c-.59,1.54-.67,3.26-1.39,4.75-1.59,3.31-5.68,4.42-8.5,6.76-5,4.18-5.52,11.75-4.31,18.18a17.21,17.21,0,0,1,.53,5.65c-.88,6-9.21,8.37-14.36,5.24s-7.3-9.59-7.63-15.61S124.71,337,124.2,331Z"/><path class="cls-4" d="M415.27,323c6.37-3.78,21.75-13,27.32-17.89,8-7,15.38-13.53,15.78-27.73s-8-28.64-7.29-36.18c1.84-18.37.33-34.51.66-53,.12-7.11.45-14.34-1.38-21.22-3.53-13.33-5.46-19.3-15.87-28.36-3.46-3-10.55-5.53-17-8.29-3-4.58,4-11.57,5.4-16.84,1.25-4.49,1.33-9.22,1.34-13.88a73,73,0,0,0-3-19.27c-3.34-12.33-21.55-15-31.2-13.27a11.4,11.4,0,0,0-9.34,8.59,6.21,6.21,0,0,0-5.25,3.08,15.24,15.24,0,0,0-1.91,6,88,88,0,0,0-.69,16.78,35.53,35.53,0,0,0,1,7.9c1,3.71,3,7,5.06,10.32,1.7,2.77,3.49,5.63,6.24,7.36a7,7,0,0,1,2.13,1.61,5.42,5.42,0,0,1,.73,2.67c.18,2.12.33,4.41-.83,6.19a38.92,38.92,0,0,1-6.47,6.55c-2,1.54-9.42,10.05-10.63,12.25-5.27,9.53-10.48,17.68-15.75,27.21-.8,1.44-2,2.62-2,4.27s3.88,3.93,5.53,4c-2.52,5.92-.92,3.77-5,8.76-.81,1-1.79,2-3.07,2.11a4.83,4.83,0,0,1-2.61-.92l-12.84-7.64a4.83,4.83,0,0,1-2.32-2.2c-.44-1.18.09-2.49-.06-3.73-.35-2.8-3.57-3.89-6.23-5.06,3-2.54,5.95-2.73,8.73-3.14v0c12.07-1,24.54-11,30.83-26.33,8.08-19.68,2.86-40.48-11.67-46.45s-32.87,5.15-40.95,24.83c-5.83,14.19-4.71,28.92,1.79,38.3a19.59,19.59,0,0,1,2.62,9.43,10.11,10.11,0,0,0-7.33,4.19c-2.06,2.72-3,6.08-4,9.36a7,7,0,0,0-.39,2.21,5.5,5.5,0,0,0,1.85,3.54,14.91,14.91,0,0,0,2.46,1.87c-2.25,5.24-4.65,10.93-6.32,15.28a7.53,7.53,0,0,0-4.09,2c-2.61,2.76-3.43,11.68-.8,14.43a12.7,12.7,0,0,0,4.79,2.71c2.48,1,7.36,2.43,10,2.33,6.8-.25,33.28-11.42,34-11.05,6.16,3.18,12.88,8.4,18.64,12.27,9.08,6.08,21.07,9,17.67,16.5-4.92,5-18.65,14.68-24.21,19-11.94,9.3-27,22-25.63,28.9.63,3.26,4.72,6.95,4.43,10.26-.43,4.9-5.88,11.08-8.64,15.14-4,5.93-2.62,13.83-1.31,20.88a307.14,307.14,0,0,1,4.31,80.31c-.22,2.83-.52,5.78-2,8.17-1.84,2.9-5.14,4.48-8.27,5.91l-27.75,12.72a15.78,15.78,0,0,0-5.58,3.58c-3.88,4.43-2.5,7.52,2.39,10.8s11.17,3.47,17.06,3.31A224.81,224.81,0,0,0,355,468.37c1.06-.26,4.36-.93,5.13-1.71,1-1.05,0-12.87.25-14.33,1.51-10.3-4.42-7.92-3.57-23.62.95-17.61,8.52-43.25,6.16-60.73-.91-6.77-.14-10.85,2.6-17.1,7.35,7.45,41.82,39.33,38.29,53.71-1.76,7.13-7.2,18.33-12.82,23.87-2.62,2.58-7.29,9.05-5.28,15.08,1.33,4,4.89,7.2,9.1,7.22,8.35,0,15-6.74,20.49-13l24.27-27.48c2-2.26,4.06-4.64,4.8-7.57,1.9-7.55-6.17-13.08-11.6-18.67-17.66-18.15-20.17-38.76-39-54.85C409,320.16,400,332.08,415.27,323ZM321.11,218.32c-2.34,1-4.77,2-7.3,1.85-1.46-.06-1.3-3.52-2.74-3.75h0c1.33-3.73,2.89-8,4.41-12.17a96.6,96.6,0,0,1,15.12,10.13Zm65.46-5.59c-.21,1.23,0,2.61-.8,3.57-1.44,1.72-3.87,3.45-5.81,2.32s-7.81-3.5-9.88-5.75c3.52-4.7,5.23-7.92,7.77-11.87C379.4,202.73,388.22,203.45,386.57,212.73Zm96.54-107a12.37,12.37,0,1,1-12.37-12.36A12.36,12.36,0,0,1,483.11,105.75Z"/></g></g></svg>