<svg xmlns="http://www.w3.org/2000/svg" viewBox="0 0 921.02 598.85"><defs><style>.cls-1{isolation:isolate;}.cls-2{fill:#fff;mix-blend-mode:overlay;opacity:0.7;}</style></defs><g class="cls-1"><g id="Layer_2" data-name="Layer 2"><g id="OBJECTS"><path class="cls-2" d="M321.63,537.12s59.84-35.17,232.1,6C737.73,587.19,921,456,921,456v91.51s-194.55,89.79-355.83,31.94C502.17,556.82,404.8,527.72,321.63,537.12Z"/><path class="cls-2" d="M480.16,81.15S459.23,47.53,315.36,46c-41.44-.45-139.86,13.19-149.7-46H0V91.51s155.85,89.79,285.05,31.95C335.53,100.85,413.54,71.75,480.16,81.15Z"/><path class="cls-2" d="M45.33,372.6s87.41-50.46,339.08,8.68C653.24,444.44,921,256.17,921,256.17v131.3S636.79,516.29,401.16,433.3C309.09,400.87,166.83,359.11,45.33,372.6Z"/><path class="cls-2" d="M735,310.79s-73.37-50.47-284.6,8.67C224.76,382.62,0,194.35,0,194.35v131.3s238.56,128.82,436.33,45.83C513.61,339.05,633,297.3,735,310.79Z"/><path class="cls-2" d="M516.07,171.71c-36.17,41-122.59,110.34-264.11,96.21C90.41,251.79,0,114.41,0,114.41v131.3s208,152.21,359.82,82.35C427.65,296.85,506.25,210.25,516.07,171.71Z"/></g></g></g></svg>