<?xml version="1.0" standalone="no"?>
<!DOCTYPE svg PUBLIC "-//W3C//DTD SVG 20010904//EN"
 "http://www.w3.org/TR/2001/REC-SVG-20010904/DTD/svg10.dtd">
<svg version="1.0" xmlns="http://www.w3.org/2000/svg"
 width="700.000000pt" height="700.000000pt" viewBox="0 0 700.000000 700.000000"
 preserveAspectRatio="xMidYMid meet">
<metadata>
Created by potrace 1.14, written by Peter Selinger 2001-2017
</metadata>
<g transform="translate(0.000000,700.000000) scale(0.100000,-0.100000)"
fill="#000000" stroke="none">
<path d="M3338 6922 c-147 -76 -252 -131 -478 -249 -151 -79 -306 -160 -455
-238 -71 -37 -175 -91 -230 -120 -55 -29 -154 -81 -220 -115 -170 -89 -316
-165 -420 -220 -49 -26 -137 -72 -195 -102 -58 -31 -159 -84 -225 -118 -66
-35 -160 -84 -210 -110 -49 -26 -162 -85 -250 -131 -254 -132 -277 -145 -291
-170 -18 -33 -20 -3654 -2 -3694 11 -25 33 -38 353 -205 66 -35 156 -82 200
-105 44 -23 143 -75 220 -115 77 -40 176 -92 220 -115 44 -23 143 -75 220
-115 77 -40 181 -94 230 -120 50 -26 152 -80 228 -119 l137 -73 0 339 0 338
-42 22 c-62 33 -297 156 -483 253 -88 45 -182 95 -210 110 -27 15 -135 71
-240 124 -104 54 -202 111 -217 127 l-28 29 0 1465 c0 1072 3 1471 11 1489 7
16 39 39 83 62 39 20 98 52 131 69 33 18 128 67 210 110 83 43 182 95 220 115
39 21 133 70 210 110 77 40 181 94 230 120 140 74 287 151 440 230 77 40 181
94 230 120 50 26 143 75 208 109 64 33 168 88 230 120 274 144 330 171 349
171 18 0 175 -78 393 -195 33 -18 123 -65 200 -105 77 -40 190 -98 250 -130
61 -32 164 -86 230 -120 66 -34 161 -84 210 -110 50 -26 149 -78 220 -115 72
-37 171 -89 220 -115 91 -48 181 -95 465 -243 286 -149 313 -164 337 -187 l23
-22 0 -1469 c0 -1022 -3 -1475 -11 -1492 -13 -28 -9 -25 -194 -122 -82 -43
-186 -97 -230 -120 -44 -23 -133 -70 -197 -104 -65 -33 -169 -87 -230 -120
-62 -32 -171 -89 -243 -126 -71 -37 -166 -87 -210 -110 -233 -124 -456 -239
-476 -247 -12 -5 -14 141 -14 986 l1 991 307 5 308 5 -136 195 c-75 107 -275
395 -445 640 -353 509 -405 584 -612 880 -82 118 -153 222 -158 230 -5 8 -10
13 -12 10 -3 -3 -92 -131 -198 -285 -107 -154 -273 -394 -370 -532 -96 -139
-215 -312 -265 -383 -49 -72 -106 -153 -125 -180 -19 -27 -96 -137 -170 -245
-74 -107 -156 -226 -183 -263 l-47 -67 307 -5 308 -5 0 -1327 c0 -872 3 -1330
10 -1336 6 -5 69 -40 140 -77 72 -37 166 -87 210 -110 309 -164 373 -194 403
-186 26 8 289 141 417 211 28 15 118 62 200 105 83 43 186 97 230 120 107 57
280 147 450 235 77 40 172 89 210 110 39 20 133 70 210 110 77 40 185 96 240
125 55 29 159 83 230 120 132 69 255 133 425 222 52 28 158 83 235 124 77 40
167 87 200 104 33 18 66 43 72 56 10 19 13 422 13 1856 l0 1832 -27 26 c-16
15 -91 59 -168 99 -77 40 -203 105 -280 145 -77 41 -187 98 -245 129 -58 30
-141 73 -185 97 -44 23 -147 77 -230 120 -82 43 -190 99 -240 125 -96 51 -226
119 -420 220 -66 34 -169 88 -230 120 -60 32 -168 88 -240 125 -71 37 -170 89
-220 115 -345 182 -627 327 -652 334 -16 5 -63 -14 -175 -72z"/>
</g>
</svg>
